# xmcd CD database file
#
# Track frame offsets:
#	150
#	13365
#	37093
#	54524
#	70906
#	84737
#	101126
#	113936
#	128215
#	146820
#	161827
#	172267
#
# Disc length: 2556 seconds
#
# Revision: 2
# Processed by: cddbd v1.5.2PL0 Copyright (c) Steve Scherf et al.
# Submitted via: Feurio! 1.68 - http://www.feurio.com
#
DISCID=ba09fa0c
DTITLE=Menic - Railroad Blues Anthology
DYEAR=2010
DGENRE=Britpop
TTITLE0=Shake My Bones
TTITLE1=I Sold Myself
TTITLE2=Lay Some Boot In
TTITLE3=1957 Ford Meteor
TTITLE4=Gunpowder Mill
TTITLE5=I Got A Halo
TTITLE6=My Everyday Is A Noday Now
TTITLE7=Fenry Wolf Revisited
TTITLE8=Crazy Love
TTITLE9=She Made Me
TTITLE10=Jack Rabbit
TTITLE11=Waiting For Zero
EXTD=YEAR: 2010
EXTT0=
EXTT1=
EXTT2=
EXTT3=
EXTT4=
EXTT5=
EXTT6=
EXTT7=
EXTT8=
EXTT9=
EXTT10=
EXTT11=
PLAYORDER=
